Coordinates
version=1
nRows=5
nColumns=107
inDegrees=yes

Units are S.I. units (second, meters, Newtons, ...)
If the header above contains a line with 'inDegrees', this indicates whether rotational values are in degrees (yes) or radians (no).

endheader
time	sternoclavicular_r2	sternoclavicular_r3	unrotscap_r3	unrotscap_r2	acromioclavicular_r2	acromioclavicular_r3	acromioclavicular_r1	unrothum_r1	unrothum_r3	unrothum_r2	elv_angle	shoulder_elv	shoulder1_r2	shoulder_rot	elbow_flexion	pro_sup	deviation	flexion	proximal_distal_r1	proximal_distal_r3	cmc_flexion	cmc_abduction	mp_flexion	ip_flexion	mcp2_flexion	mcp2_abduction	pm2_flexion	md2_flexion	mcp3_flexion	mcp3_abduction	pm3_flexion	md3_flexion	mcp4_flexion	mcp4_abduction	pm4_flexion	md4_flexion	mcp5_flexion	mcp5_abduction	pm5_flexion	md5_flexion	bicpt_tx	bicpt_ty	bicpt_tz	bicpt2_tx	bicpt2_ty	bicpt2_tz	ptpt_tx	ptpt_ty	ptpt_tz	FCUpt_tx	FCUpt_ty	FCUpt_tz	EDCpt_tx	EDCpt_ty	EDCpt_tz	APLpt_tx	APLpt_ty	APLpt_tz	FPLpt_tx	FPLpt_ty	FPLpt_tz	FPLpt2_tx	FPLpt2_ty	FPLpt2_tz	PEC1pt2_tx	PEC1pt2_ty	PEC1pt2_tz	PEC1pt3_tx	PEC1pt3_ty	PEC1pt3_tz	PEC2pt2_tx	PEC2pt2_ty	PEC2pt2_tz	PEC2pt3_tx	PEC2pt3_ty	PEC2pt3_tz	PEC3pt2_tx	PEC3pt2_ty	PEC3pt2_tz	PEC3pt3_tx	PEC3pt3_ty	PEC3pt3_tz	DELT2pt2a_tx	DELT2pt2a_ty	DELT2pt2a_tz	DELT2pt2_tx	DELT2pt2_ty	DELT2pt2_tz	LAT1pt2_tx	LAT1pt2_ty	LAT1pt2_tz	LAT1pt3_tx	LAT1pt3_ty	LAT1pt3_tz	LAT2pt2_tx	LAT2pt2_ty	LAT2pt2_tz	LAT2pt3_tx	LAT2pt3_ty	LAT2pt3_tz	LAT3pt2_tx	LAT3pt2_ty	LAT3pt2_tz	LAT3pt3_tx	LAT3pt3_ty	LAT3pt3_tz
      1.60000000	     -0.33331712	      0.14117740	     -0.14117740	      0.33331712	     -0.06748994	      0.54542992	      0.24516700	     -0.24516700	     -0.54542992	      0.06748994	     97.60613639	     78.91578985	     -1.70354845	    -12.59398968	     28.72923645	     44.28105535	      0.17887020	     -0.70158833	      0.21656481	     -0.35079417	     16.85492714	    -21.70939727	     -0.69489803	     -1.47361136	     24.41837925	      4.97698710	     24.63870408	    -21.51425853	     24.47356818	     -0.85411418	     20.84989498	     18.78588526	     21.75818787	     -5.45594001	     10.94303265	     26.26387329	     10.84128195	    -10.31100877	      4.30666645	      5.05429307	      0.00085027	     -0.03089281	     -0.00483039	      0.01656144	     -0.01800444	     -0.00700017	      0.00427813	     -0.06701565	     -0.00361708	      0.00821408	     -0.18340341	     -0.00040991	     -0.00531371	      0.00155722	      0.00011072	      0.00030561	      0.00012224	      0.00061121	      0.00039118	      0.00117353	      0.00066011	      0.00001951	     -0.00026355	     -0.00031626	      0.00258669	      0.00907532	      0.00631327	     -0.00846153	      0.02043044	     -0.01937823	      0.00258669	      0.00907532	      0.00631327	      0.00056995	      0.01893981	     -0.00995217	      0.00405061	      0.00504667	      0.01621309	      0.00000000	      0.00833305	      0.00000000	     -0.00740932	     -0.03424071	     -0.00687391	      0.00913577	     -0.00021614	     -0.00118512	     -0.00092068	      0.01543243	     -0.00631327	      0.00254284	      0.02227181	     -0.01841370	     -0.00618174	      0.01337185	     -0.00565564	     -0.01288959	      0.02823434	     -0.03161018	     -0.02420086	      0.01495017	     -0.00758469	     -0.01604622	      0.03261855	     -0.03950177
      1.63333333	     -0.33337521	      0.14120200	     -0.14120200	      0.33337521	     -0.06750170	      0.54552498	      0.24520972	     -0.24520972	     -0.54552498	      0.06750170	     97.56047713	     78.92954389	     -1.70275155	    -12.60814638	     28.70122884	     44.28011128	      0.17891094	     -0.70158212	      0.21660763	     -0.35079106	     16.85114823	    -21.70968241	     -0.69716766	     -1.47410205	     24.42071743	      4.97572785	     24.63942699	    -21.51338054	     24.47642509	     -0.85476451	     20.85069133	     18.78595124	     21.76014765	     -5.45641763	     10.94466673	     26.26398035	     10.84225026	    -10.31035170	      4.30701186	      5.05434109	      0.00084935	     -0.03088960	     -0.00482987	      0.01656145	     -0.01799683	     -0.00700028	      0.00427820	     -0.06701560	     -0.00361700	      0.00821398	     -0.18340343	     -0.00040990	     -0.00531360	      0.00155718	      0.00011073	      0.00030561	      0.00012224	      0.00061122	      0.00039118	      0.00117354	      0.00066011	      0.00001951	     -0.00026352	     -0.00031623	      0.00258714	      0.00907691	      0.00631437	     -0.00846301	      0.02043400	     -0.01938160	      0.00258714	      0.00907691	      0.00631437	      0.00057005	      0.01894311	     -0.00995390	      0.00405112	      0.00504755	      0.01621427	      0.00000000	      0.00833598	      0.00000000	     -0.00741061	     -0.03424668	     -0.00687634	      0.00914534	     -0.00021653	     -0.00118824	     -0.00092085	      0.01543512	     -0.00631437	      0.00254329	      0.02227569	     -0.01841691	     -0.00618282	      0.01337418	     -0.00565662	     -0.01289184	      0.02823926	     -0.03161569	     -0.02420508	      0.01495278	     -0.00758601	     -0.01604902	      0.03262424	     -0.03950866
      1.66666667	     -0.33272494	      0.14092658	     -0.14092658	      0.33272494	     -0.06737003	      0.54446091	      0.24473143	     -0.24473143	     -0.54446091	      0.06737003	     97.87693682	     78.77558794	     -1.70827481	    -13.33294562	     28.36189964	     46.45492373	      0.20939501	     -0.68520527	      0.24829038	     -0.34260263	     17.28630169	    -21.57676024	     -2.71402627	     -0.98451118	     26.43778145	      5.18896344	     23.64714825	    -19.25906061	     27.28239394	     -0.60071205	     20.00042645	     17.33696106	     24.52477182	     -5.63164650	     12.31786864	     23.58345864	     14.66245230	    -10.28192678	      3.04482865	      4.99871405	      0.00083812	     -0.03085071	     -0.00482360	      0.01653881	     -0.01790465	     -0.00675175	      0.00411751	     -0.06711951	     -0.00379219	      0.00843654	     -0.18335487	     -0.00041655	     -0.00557458	      0.00164925	      0.00008879	      0.00030787	      0.00012315	      0.00061574	      0.00039408	      0.00118223	      0.00066500	      0.00001847	     -0.00026615	     -0.00031939	      0.00258209	      0.00905920	      0.00630205	     -0.00844650	      0.02039414	     -0.01934380	      0.00258209	      0.00905920	      0.00630205	      0.00056894	      0.01890616	     -0.00993449	      0.00404544	      0.00503771	      0.01620100	      0.00000000	      0.00830324	      0.00000000	     -0.00739616	     -0.03417988	     -0.00684918	      0.00963174	     -0.00023656	     -0.00135284	     -0.00091905	      0.01540502	     -0.00630205	      0.00253833	      0.02223224	     -0.01838099	     -0.00617076	      0.01334810	     -0.00564559	     -0.01286669	      0.02818418	     -0.03155403	     -0.02415787	      0.01492361	     -0.00757122	     -0.01601772	      0.03256060	     -0.03943159
      1.70000000	     -0.33270459	      0.14091796	     -0.14091796	      0.33270459	     -0.06736591	      0.54442760	      0.24471646	     -0.24471646	     -0.54442760	      0.06736591	     97.95599499	     78.77076923	     -1.70965463	    -13.45668284	     28.15318149	     46.34648025	      0.20984303	     -0.68450759	      0.24874444	     -0.34225380	     17.23996063	    -21.61568085	     -2.73846234	     -0.98540371	     26.44465237	      5.11184678	     23.65110855	    -19.24989879	     27.23330935	     -0.65789613	     19.98267919	     17.33072145	     24.52887982	     -5.66245828	     12.32694176	     23.58093624	     14.72113692	    -10.28552625	      3.06155875	      5.00486085	      0.00083122	     -0.03082678	     -0.00481975	      0.01654019	     -0.01784795	     -0.00676430	      0.00412552	     -0.06711433	     -0.00378346	      0.00842541	     -0.18335732	     -0.00041631	     -0.00556156	      0.00164463	      0.00008994	      0.00030796	      0.00012318	      0.00061592	      0.00039419	      0.00118256	      0.00066519	      0.00001859	     -0.00026588	     -0.00031906	      0.00258193	      0.00905865	      0.00630167	     -0.00844598	      0.02039289	     -0.01934262	      0.00258193	      0.00905865	      0.00630167	      0.00056890	      0.01890500	     -0.00993388	      0.00404526	      0.00503740	      0.01620058	      0.00000000	      0.00830222	      0.00000000	     -0.00739571	     -0.03417779	     -0.00684834	      0.00971408	     -0.00024001	     -0.00138189	     -0.00091899	      0.01540407	     -0.00630167	      0.00253817	      0.02223088	     -0.01837986	     -0.00617038	      0.01334728	     -0.00564524	     -0.01286590	      0.02818245	     -0.03155210	     -0.02415639	      0.01492270	     -0.00757075	     -0.01601674	      0.03255861	     -0.03942918
      1.73333333	     -0.33223408	      0.14071868	     -0.14071868	      0.33223408	     -0.06727064	      0.54365767	      0.24437038	     -0.24437038	     -0.54365767	      0.06727064	     97.99686624	     78.65937158	     -1.71036797	    -13.84329431	     28.22237040	     46.30527745	      0.21396367	     -0.65512416	      0.25290762	     -0.32756208	     17.02566850	    -21.93284618	     -2.19090958	     -3.45507536	     25.51852417	      4.48561956	     24.50866331	    -19.84544125	     25.15529344	     -0.98581722	     21.15473145	     19.98330547	     23.19971460	     -5.75477278	     11.62620089	     26.21849272	     13.88914538	    -10.07857352	      2.43849239	      5.08351640	      0.00083351	     -0.03083472	     -0.00482103	      0.01654073	     -0.01786675	     -0.00676907	      0.00412856	     -0.06711236	     -0.00378014	      0.00842118	     -0.18335826	     -0.00041622	     -0.00555662	      0.00164287	      0.00009039	      0.00031086	      0.00012434	      0.00062172	      0.00039790	      0.00119370	      0.00067146	      0.00001910	     -0.00026461	     -0.00031753	      0.00257828	      0.00904584	      0.00629276	     -0.00843404	      0.02036405	     -0.01931526	      0.00257828	      0.00904584	      0.00629276	      0.00056810	      0.01887827	     -0.00991983	      0.00404115	      0.00503027	      0.01619094	      0.00000000	      0.00827857	      0.00000000	     -0.00738525	     -0.03412946	     -0.00682872	      0.00997006	     -0.00025082	     -0.00147442	     -0.00091769	      0.01538229	     -0.00629276	      0.00253458	      0.02219944	     -0.01835387	     -0.00616166	      0.01332840	     -0.00563726	     -0.01284771	      0.02814260	     -0.03150747	     -0.02412223	      0.01490159	     -0.00756005	     -0.01599409	      0.03251257	     -0.03937342
